<svg xmlns="http://www.w3.org/2000/svg" width="20" height="20" fill="none"><path fill="#1A1D1F" fill-rule="evenodd" d="M12 6H8a1 1 0 0 0-1 1v6a1 1 0 0 0 1 1h4a1 1 0 0 0 1-1V7a1 1 0 0 0-1-1ZM8 4a3 3 0 0 0-3 3v6a3 3 0 0 0 3 3h4a3 3 0 0 0 3-3V7a3 3 0 0 0-3-3H8ZM0 3a3 3 0 0 1 3-3h2a1 1 0 0 1 0 2H3a1 1 0 0 0-1 1v2a1 1 0 0 1-2 0V3ZM0 17a3 3 0 0 0 3 3h2a1 1 0 1 0 0-2H3a1 1 0 0 1-1-1v-2a1 1 0 1 0-2 0v2ZM20 17a3 3 0 0 1-3 3h-2a1 1 0 1 1 0-2h2a1 1 0 0 0 1-1v-2a1 1 0 1 1 2 0v2ZM20 3a3 3 0 0 0-3-3h-2a1 1 0 1 0 0 2h2a1 1 0 0 1 1 1v2a1 1 0 1 0 2 0V3Z" clip-rule="evenodd"/><path fill="#1A1D1F" fill-rule="evenodd" d="M0 10a1 1 0 0 1 1-1h18a1 1 0 1 1 0 2H1a1 1 0 0 1-1-1Z" clip-rule="evenodd"/></svg>