<svg width="12" height="12" viewBox="0 0 12 12" fill="none" xmlns="http://www.w3.org/2000/svg">
<path d="M1.58928 0.410734C1.26384 0.0852973 0.736202 0.0852972 0.410765 0.410734C0.0853279 0.736171 0.0853277 1.26381 0.410765 1.58925L4.82152 6L0.410789 10.4107C0.0853519 10.7362 0.0853519 11.2638 0.410789 11.5892C0.736226 11.9147 1.26386 11.9147 1.5893 11.5892L6.00003 7.17852L10.4108 11.5893C10.7362 11.9147 11.2638 11.9147 11.5893 11.5893C11.9147 11.2638 11.9147 10.7362 11.5893 10.4107L7.17854 6L11.5893 1.58925C11.9147 1.26381 11.9147 0.736172 11.5893 0.410735C11.2639 0.0852983 10.7362 0.0852986 10.4108 0.410735L6.00003 4.82149L1.58928 0.410734Z" fill="#33383F"/>
</svg>
