<svg xmlns="http://www.w3.org/2000/svg" width="24" height="24" fill="none"><path fill="#6F767E" fill-rule="evenodd" d="M10.054 2.345a3 3 0 0 1 3.892 0l1.271 1.083a1 1 0 0 0 .57.236l1.665.133a3 3 0 0 1 2.752 2.752l.133 1.665a1 1 0 0 0 .235.569l1.084 1.271a3 3 0 0 1 0 3.892l-1.084 1.271a1 1 0 0 0-.235.57l-.133 1.665a3 3 0 0 1-2.752 2.752l-1.665.133a1 1 0 0 0-.57.235l-1.27 1.084a3 3 0 0 1-3.893 0l-1.271-1.084a1 1 0 0 0-.57-.235l-1.664-.133a3 3 0 0 1-2.752-2.752l-.133-1.665a1 1 0 0 0-.236-.57l-1.083-1.27a3 3 0 0 1 0-3.893l1.083-1.271a1 1 0 0 0 .236-.57l.133-1.664a3 3 0 0 1 2.752-2.752l1.665-.133a1 1 0 0 0 .569-.236l1.271-1.083Zm2.595 1.522a1 1 0 0 0-1.297 0L10.08 4.95a3 3 0 0 1-1.707.707l-1.665.133a1 1 0 0 0-.918.918l-.133 1.665a3 3 0 0 1-.707 1.707l-1.083 1.272a1 1 0 0 0 0 1.297L4.95 13.92a3 3 0 0 1 .707 1.707l.133 1.666a1 1 0 0 0 .918.917l1.665.133a3 3 0 0 1 1.707.707l1.272 1.084a1 1 0 0 0 1.297 0l1.271-1.084a3 3 0 0 1 1.707-.707l1.666-.133a1 1 0 0 0 .917-.917l.133-1.665a3 3 0 0 1 .707-1.708l1.084-1.271a1 1 0 0 0 0-1.297L19.05 10.08a3 3 0 0 1-.707-1.707l-.133-1.665a1 1 0 0 0-.917-.918l-1.665-.133a3 3 0 0 1-1.708-.707L12.65 3.867Z" clip-rule="evenodd"/><path fill="#6F767E" d="M11 9.5a1.5 1.5 0 1 1-3 0 1.5 1.5 0 0 1 3 0ZM16 14.5a1.5 1.5 0 1 1-3 0 1.5 1.5 0 0 1 3 0Z"/><path fill="#6F767E" fill-rule="evenodd" d="M15.14 8.232a1 1 0 0 1 .128 1.408l-5 6a1 1 0 1 1-1.536-1.28l5-6a1 1 0 0 1 1.408-.128Z" clip-rule="evenodd"/></svg>