<svg xmlns="http://www.w3.org/2000/svg" width="48" height="48" fill="none"><rect width="48" height="48" fill="#1A1D1F" rx="24"/><path fill="#fff" fill-rule="evenodd" d="M24 29c4.112 0 6.587-3.067 7.683-4.895a.2.2 0 0 0 .032-.105.2.2 0 0 0-.032-.105C30.587 22.067 28.113 19 24 19c-4.112 0-6.587 3.067-7.683 4.895a.2.2 0 0 0-.032.105.2.2 0 0 0 .032.105C17.413 25.933 19.888 29 24 29Zm9.398-3.867C32.21 27.115 29.215 31 24 31s-8.21-3.885-9.398-5.867a2.186 2.186 0 0 1 0-2.266C15.79 20.885 18.785 17 24 17s8.21 3.885 9.398 5.867a2.187 2.187 0 0 1 0 2.266Z" clip-rule="evenodd"/><path fill="#fff" fill-rule="evenodd" d="M24 25a1 1 0 1 0 0-2 1 1 0 0 0 0 2Zm0 2a3 3 0 1 0 0-6 3 3 0 0 0 0 6Z" clip-rule="evenodd"/></svg>