<svg xmlns="http://www.w3.org/2000/svg" width="24" height="24" fill="none"><path fill="#6F767E" fill-rule="evenodd" d="M12 14a2 2 0 1 0 0-4 2 2 0 0 0 0 4Zm4-2a4 4 0 1 1-8 0 4 4 0 0 1 8 0Z" clip-rule="evenodd"/><path fill="#6F767E" fill-rule="evenodd" d="m11.38 3-.389 1.163C10.617 5.288 9.8 6.07 8.966 6.534c-.059.033-.118.067-.176.102-.82.493-1.908.81-3.071.572l-1.202-.246.401-1.96 1.202.247c.565.115 1.146-.03 1.64-.327a8.21 8.21 0 0 1 .233-.135c.504-.28.92-.71 1.102-1.257l.388-1.162A2 2 0 0 1 11.379 1h1.242a2 2 0 0 1 1.897 1.368l.388 1.162c.182.547.598.977 1.102 1.257.078.044.155.089.232.135.495.297 1.076.442 1.641.327l1.202-.246a2 2 0 0 1 2.133.96l.62 1.075a2 2 0 0 1-.235 2.327l-.815.919c-.382.43-.547 1.005-.538 1.58.002.09.002.181 0 .272-.009.575.156 1.15.538 1.58l.815.92a2 2 0 0 1 .236 2.326l-.621 1.076a2 2 0 0 1-2.133.96l-1.202-.247c-.565-.115-1.146.03-1.64.327-.078.046-.155.091-.233.135-.504.28-.92.71-1.102 1.257l-.388 1.163A2 2 0 0 1 12.621 23h-1.242a2 2 0 0 1-1.897-1.367l-.388-1.163c-.182-.547-.598-.977-1.102-1.257a8.362 8.362 0 0 1-.232-.135c-.495-.297-1.076-.442-1.641-.327l-1.202.246a2 2 0 0 1-2.133-.96l-.62-1.075a2 2 0 0 1 .235-2.327l1.496 1.327.621 1.076 1.202-.246c1.163-.238 2.251.08 3.071.572.058.034.117.069.176.101.834.465 1.652 1.247 2.027 2.372L11.379 21h1.242l.388-1.163c.374-1.125 1.192-1.907 2.026-2.372a6.29 6.29 0 0 0 .176-.101c.82-.493 1.908-.81 3.071-.572l1.202.246.62-1.076-.814-.919c-.785-.885-1.057-1.982-1.041-2.94v-.207c-.016-.957.256-2.054 1.04-2.94l.816-.918-.621-1.076-1.202.246c-1.163.238-2.251-.08-3.071-.572a6.24 6.24 0 0 0-.176-.102c-.834-.464-1.652-1.246-2.026-2.371L12.62 3h-1.242ZM2.398 14.635l1.496 1.327.815-.919c.785-.885 1.057-1.982 1.042-2.94a6.543 6.543 0 0 1 0-.207c.015-.957-.257-2.054-1.042-2.94l-.815-.918.621-1.076.401-1.96a2 2 0 0 0-2.133.96l-.62 1.076a2 2 0 0 0 .235 2.327l.815.919c.382.43.547 1.005.538 1.58-.002.09-.002.181 0 .271.009.576-.156 1.15-.538 1.581l-.815.92Z" clip-rule="evenodd"/></svg>