<svg xmlns="http://www.w3.org/2000/svg" width="20" height="20" fill="none"><path fill="#1A1D1F" d="M4 4H3a3 3 0 0 0-3 3v10a3 3 0 0 0 3 3h10a3 3 0 0 0 3-3v-1h-2v1a1 1 0 0 1-1 1H3a1 1 0 0 1-1-1V7a1 1 0 0 1 1-1h1V4Z"/><path fill="#1A1D1F" fill-rule="evenodd" d="M4 3a3 3 0 0 1 3-3h10a3 3 0 0 1 3 3v10a3 3 0 0 1-3 3H7a3 3 0 0 1-3-3V3Zm3-1h10a1 1 0 0 1 1 1v10a.995.995 0 0 1-.205.606c-.03-.04-.063-.08-.1-.12L11.32 6.53a3 3 0 0 0-4.516.106L6 7.6V3a1 1 0 0 1 1-1Zm-1 8.724V13a1 1 0 0 0 1 1h8.454l-5.61-6.119a1 1 0 0 0-1.505.036L6 10.724Z" clip-rule="evenodd"/><circle cx="14.5" cy="5.5" r="1.5" fill="#1A1D1F"/></svg>