<svg xmlns="http://www.w3.org/2000/svg" width="24" height="24" fill="none"><path fill="#1A1D1F" fill-rule="evenodd" d="M7 9a1 1 0 0 1 1-1h8a1 1 0 1 1 0 2H8a1 1 0 0 1-1-1ZM7 13a1 1 0 0 1 1-1h4a1 1 0 1 1 0 2H8a1 1 0 0 1-1-1Z" clip-rule="evenodd"/><path fill="#1A1D1F" fill-rule="evenodd" d="M6.72 17.464A2 2 0 0 1 8 17h11a1 1 0 0 0 1-1V6a1 1 0 0 0-1-1H5a1 1 0 0 0-1 1v13.73l2.72-2.266ZM8 19h11a3 3 0 0 0 3-3V6a3 3 0 0 0-3-3H5a3 3 0 0 0-3 3v13.73c0 1.696 1.978 2.622 3.28 1.536L8 19Z" clip-rule="evenodd"/></svg>